<svg xmlns="http://www.w3.org/2000/svg" viewBox="0 0 1270.64 367.8"><defs><style>.cls-1{fill:#56b147;}.cls-2,.cls-4{fill:none;stroke-miterlimit:10;}.cls-2{stroke:#fff;stroke-width:5px;}.cls-3{fill:#fff;}.cls-4{stroke:#f68a1f;stroke-width:9px;}</style></defs><g id="Layer_2" data-name="Layer 2"><g id="Layer_1-2" data-name="Layer 1"><path class="cls-1" d="M81.86,95.63a9.28,9.28,0,0,1,4,1,8.18,8.18,0,0,1,3.37,2.85l54.09,81.64-7.35-.2,54.7-81.44q2.85-3.87,6.94-3.87a9.28,9.28,0,0,1,5.81,2.55,7.58,7.58,0,0,1,2.5,5.84V230.33a8,8,0,0,1-2.45,5.92,8.31,8.31,0,0,1-6.12,2.45,8.22,8.22,0,0,1-8.57-7.84c0-.18,0-.35,0-.53V119.71l5.1.82L145.75,193.8a10.27,10.27,0,0,1-3,2.65,8.9,8.9,0,0,1-7.45,0,7.59,7.59,0,0,1-2.86-2.65L84.92,120.73l4.29-5.51V230.33A8.51,8.51,0,0,1,87,236.25a7.9,7.9,0,0,1-11.16.28l-.27-.28a8.43,8.43,0,0,1-2.25-5.92V104a8.54,8.54,0,0,1,8.57-8.36Z"/><path class="cls-1" d="M83.59,281.21q-4.92,0-7.61-2.8a10.74,10.74,0,0,1-2.69-7.73V266c0-3.43.89-6.08,2.69-7.95s4.33-2.81,7.61-2.81h1.87c3.42,0,6,.94,7.72,2.81s2.57,4.52,2.57,7.95v4.68c0,3.28-.85,5.85-2.57,7.73s-4.29,2.8-7.72,2.8Z"/><path class="cls-1" d="M138.69,281.21q-4.92,0-7.61-2.8a10.74,10.74,0,0,1-2.69-7.73V266c0-3.43.89-6.08,2.69-7.95s4.33-2.81,7.61-2.81h1.87q5.15,0,7.72,2.81c1.72,1.87,2.57,4.52,2.57,7.95v4.68c0,3.28-.85,5.85-2.57,7.73s-4.29,2.8-7.72,2.8Z"/><path class="cls-1" d="M193.79,281.21q-4.92,0-7.61-2.8a10.74,10.74,0,0,1-2.69-7.73V266c0-3.43.89-6.08,2.69-7.95s4.33-2.81,7.61-2.81h1.87c3.42,0,6,.94,7.72,2.81s2.56,4.52,2.54,7.95v4.68a11,11,0,0,1-2.57,7.73c-1.72,1.87-4.3,2.8-7.72,2.8Z"/><line class="cls-2" x1="351.06" x2="351.06" y2="367.8"/><path class="cls-1" d="M405.79,151.62a5.82,5.82,0,0,1,2.42.62,5,5,0,0,1,2,1.74l32.92,49.69-4.47-.13L472,154a5.11,5.11,0,0,1,4.22-2.36,5.62,5.62,0,0,1,3.54,1.55,4.67,4.67,0,0,1,1.55,3.54v76.9a4.92,4.92,0,0,1-1.49,3.6,5.19,5.19,0,0,1-7.34.16,5.14,5.14,0,0,1-1.6-3.76V166.28l3.1.5-29.31,44.59a6.47,6.47,0,0,1-1.75,1.63,5.53,5.53,0,0,1-4.54,0,4.75,4.75,0,0,1-1.74-1.62l-29-44.48,2.61-3.35v70.06a5.21,5.21,0,0,1-1.37,3.6,4.81,4.81,0,0,1-6.79.22l-.21-.22a5.12,5.12,0,0,1-1.37-3.6v-76.9a5.18,5.18,0,0,1,5.22-5.09Z"/><path class="cls-1" d="M564.54,151.62a4.67,4.67,0,0,1,3.6,1.49,5.21,5.21,0,0,1,1.37,3.6V206a33.3,33.3,0,1,1-66.59,0V156.71a4.88,4.88,0,0,1,1.49-3.6,5.2,5.2,0,0,1,3.85-1.49,5,5,0,0,1,3.54,1.49,4.87,4.87,0,0,1,1.55,3.6V206a23.69,23.69,0,0,0,3.11,12.17,22.77,22.77,0,0,0,19.75,11.43,23.41,23.41,0,0,0,20.37-11.43A23.14,23.14,0,0,0,559.82,206V156.71a5.29,5.29,0,0,1,1.3-3.6A4.32,4.32,0,0,1,564.54,151.62Z"/><path class="cls-1" d="M639.19,228.89a5,5,0,0,1,3.61,1.42,4.77,4.77,0,0,1,1.49,3.54,4.56,4.56,0,0,1-1.49,3.48,5.14,5.14,0,0,1-3.61,1.37h-43a4.84,4.84,0,0,1-3.66-1.49,5,5,0,0,1-1.43-3.6V156.84a4.92,4.92,0,0,1,1.49-3.6,5.21,5.21,0,0,1,3.85-1.5,5.1,5.1,0,0,1,5.1,5.1v74.28l-2.49-2.23Z"/><path class="cls-1" d="M688.63,164.66l-29.19,71.06a4.92,4.92,0,0,1-1.74,2.42,4.71,4.71,0,0,1-6.08-.37,5.12,5.12,0,0,1-1.25-3.05,7.79,7.79,0,0,1,.25-1.86l32.18-78.13a5.73,5.73,0,0,1,2-2.61,4.51,4.51,0,0,1,2.92-.75,5.16,5.16,0,0,1,2.92.87,4.49,4.49,0,0,1,1.8,2.49l32,77.39a5.71,5.71,0,0,1,.37,2,4.69,4.69,0,0,1-1.49,3.61,4.82,4.82,0,0,1-3.35,1.36,4.6,4.6,0,0,1-2.86-.93,5.58,5.58,0,0,1-1.86-2.55l-29.56-71.05Zm-23,50.81,4.23-9.69h36.89l1.86,9.69Z"/><path class="cls-3" d="M777.82,238.7a5,5,0,0,1-5.22-4.77V156.84a5.1,5.1,0,0,1,5.1-5.1h43.6a5,5,0,0,1,3.6,1.43,4.72,4.72,0,0,1,1.49,3.54,4.43,4.43,0,0,1-1.47,3.29,5,5,0,0,1-3.6,1.42H782.17l.74-1v30.31l-.62-1.37h33.42a5,5,0,0,1,3.6,1.43,4.69,4.69,0,0,1,1.49,3.54,4.41,4.41,0,0,1-1.49,3.36,5.15,5.15,0,0,1-3.6,1.36H782.05l.86-1v35.53a5.09,5.09,0,0,1-5.09,5.09h0Z"/><path class="cls-3" d="M853.1,233.61a4.87,4.87,0,0,1-1.55,3.6,5.15,5.15,0,0,1-3.63,1.49,5,5,0,0,1-5.22-4.77V156.84a4.92,4.92,0,0,1,1.49-3.6,5.21,5.21,0,0,1,3.85-1.5,5.1,5.1,0,0,1,5.1,5.1Z"/><path class="cls-3" d="M939.31,151.74a4.32,4.32,0,0,1,3.35,1.37,4.82,4.82,0,0,1,1.24,3.35v77a5,5,0,0,1-1.49,3.79,5.19,5.19,0,0,1-3.73,1.43,5.65,5.65,0,0,1-2.11-.44,4.25,4.25,0,0,1-1.74-1.18l-53.16-70.3,2.48-1.37V234.1a4.45,4.45,0,0,1-1.3,3.29,4.63,4.63,0,0,1-3.42,1.31,4.38,4.38,0,0,1-3.35-1.31,4.52,4.52,0,0,1-1.24-3.29V156.84a4.76,4.76,0,0,1,1.49-3.73,5,5,0,0,1,3.48-1.37,6.65,6.65,0,0,1,2.29.44,3.48,3.48,0,0,1,1.8,1.43l52.3,69.19-1.49,2V156.46a4.7,4.7,0,0,1,1.3-3.35A4.36,4.36,0,0,1,939.31,151.74Z"/><path class="cls-3" d="M995.7,164.66l-29.19,71.06a4.92,4.92,0,0,1-1.74,2.42,4.29,4.29,0,0,1-2.61.93,4.34,4.34,0,0,1-3.48-1.3,5.14,5.14,0,0,1-1.24-3.05,7.31,7.31,0,0,1,.25-1.86l32.17-78.13a5.73,5.73,0,0,1,2-2.61,4.51,4.51,0,0,1,2.92-.75,5.16,5.16,0,0,1,2.92.87,4.49,4.49,0,0,1,1.8,2.49l32,77.39a5.71,5.71,0,0,1,.37,2,4.69,4.69,0,0,1-1.49,3.61,4.82,4.82,0,0,1-3.35,1.36,4.6,4.6,0,0,1-2.86-.93,5.51,5.51,0,0,1-1.86-2.55l-29.57-71.05Zm-23,50.81,4.22-9.69h36.9l1.86,9.69Z"/><path class="cls-3" d="M1110,151.74a4.32,4.32,0,0,1,3.36,1.37,4.87,4.87,0,0,1,1.24,3.35v77a5,5,0,0,1-1.49,3.79,5.23,5.23,0,0,1-3.73,1.43,5.65,5.65,0,0,1-2.11-.44,4.09,4.09,0,0,1-1.74-1.18l-53.16-70.3,2.48-1.37V234.1a4.45,4.45,0,0,1-1.3,3.29,4.63,4.63,0,0,1-3.42,1.31,4.37,4.37,0,0,1-3.35-1.31,4.55,4.55,0,0,1-1.25-3.29V156.84a4.81,4.81,0,0,1,1.49-3.73,5,5,0,0,1,3.48-1.37,6.75,6.75,0,0,1,2.3.44,3.48,3.48,0,0,1,1.8,1.43l52.34,69.19-1.49,2V156.46a4.64,4.64,0,0,1,1.3-3.35A4.37,4.37,0,0,1,1110,151.74Z"/><path class="cls-3" d="M1198.8,157.46a4.46,4.46,0,0,1,2.48,3.35,5.41,5.41,0,0,1-1.11,4.23,4,4,0,0,1-2.86,1.67,6.18,6.18,0,0,1-3.48-.68,38,38,0,0,0-8.82-3.91,34.53,34.53,0,0,0-9.94-1.43,35.34,35.34,0,0,0-13.41,2.48,30.36,30.36,0,0,0-10.56,7.15,33.16,33.16,0,0,0-7,11,37.57,37.57,0,0,0-2.48,13.91,38.65,38.65,0,0,0,2.61,14.66,32.58,32.58,0,0,0,7.14,11,30.08,30.08,0,0,0,10.56,6.9,35.74,35.74,0,0,0,13.1,2.36,35.07,35.07,0,0,0,9.82-1.37,34.24,34.24,0,0,0,8.82-4,5.86,5.86,0,0,1,3.54-.62,4.25,4.25,0,0,1,2.92,1.73,4.92,4.92,0,0,1,1.18,4.17,4.72,4.72,0,0,1-2.43,3.29,43.6,43.6,0,0,1-7.08,3.35,52.91,52.91,0,0,1-8.26,2.36,42.67,42.67,0,0,1-8.51.87,46.17,46.17,0,0,1-16.89-3.1,43.59,43.59,0,0,1-14.1-8.89,40.38,40.38,0,0,1-9.63-14,48.09,48.09,0,0,1-3.47-18.7,46.06,46.06,0,0,1,3.35-17.7,42.7,42.7,0,0,1,9.32-14.1,42.1,42.1,0,0,1,14-9.25,45.32,45.32,0,0,1,17.45-3.29,47.09,47.09,0,0,1,12.55,1.67A41.64,41.64,0,0,1,1198.8,157.46Z"/><path class="cls-3" d="M1221.28,151.74h44.22a5.08,5.08,0,0,1,3.61,1.43,4.77,4.77,0,0,1,1.49,3.54,4.37,4.37,0,0,1-1.49,3.42,5.32,5.32,0,0,1-3.61,1.3h-40l1.11-2.11v31.31l-1.24-1.37h34.55a5.14,5.14,0,0,1,3.61,1.37,4.66,4.66,0,0,1,1.49,3.6,4.35,4.35,0,0,1-1.49,3.41,5.29,5.29,0,0,1-3.61,1.36h-34.16l.87-1.24v32.17l-.71-.93h39.62a5,5,0,0,1,3.61,1.49,4.68,4.68,0,0,1,1.49,3.35,4.56,4.56,0,0,1-1.49,3.48,5.14,5.14,0,0,1-3.61,1.37h-44.22a5.09,5.09,0,0,1-5.09-5.09V156.84a5.1,5.1,0,0,1,5.09-5.1Z"/><circle class="cls-4" cx="139.6" cy="195.69" r="135.1"/></g></g></svg>